<svg id="visual" viewBox="0 0 900 600" width="900" height="600" xmlns="http://www.w3.org/2000/svg" xmlns:xlink="http://www.w3.org/1999/xlink" version="1.1"><rect x="0" y="0" width="900" height="600" fill="#001220"></rect><defs><linearGradient id="grad1_0" x1="33.3%" y1="0%" x2="100%" y2="100%"><stop offset="20%" stop-color="#3c98fa" stop-opacity="1"></stop><stop offset="80%" stop-color="#3c98fa" stop-opacity="1"></stop></linearGradient></defs><defs><linearGradient id="grad1_1" x1="33.3%" y1="0%" x2="100%" y2="100%"><stop offset="20%" stop-color="#3c98fa" stop-opacity="1"></stop><stop offset="80%" stop-color="#0a5285" stop-opacity="1"></stop></linearGradient></defs><defs><linearGradient id="grad1_2" x1="33.3%" y1="0%" x2="100%" y2="100%"><stop offset="20%" stop-color="#001220" stop-opacity="1"></stop><stop offset="80%" stop-color="#0a5285" stop-opacity="1"></stop></linearGradient></defs><defs><linearGradient id="grad2_0" x1="0%" y1="0%" x2="66.7%" y2="100%"><stop offset="20%" stop-color="#3c98fa" stop-opacity="1"></stop><stop offset="80%" stop-color="#3c98fa" stop-opacity="1"></stop></linearGradient></defs><defs><linearGradient id="grad2_1" x1="0%" y1="0%" x2="66.7%" y2="100%"><stop offset="20%" stop-color="#0a5285" stop-opacity="1"></stop><stop offset="80%" stop-color="#3c98fa" stop-opacity="1"></stop></linearGradient></defs><defs><linearGradient id="grad2_2" x1="0%" y1="0%" x2="66.7%" y2="100%"><stop offset="20%" stop-color="#0a5285" stop-opacity="1"></stop><stop offset="80%" stop-color="#001220" stop-opacity="1"></stop></linearGradient></defs><g transform="translate(900, 0)"><path d="M0 432.7C-34.4 411.1 -68.9 389.5 -99.9 372.8C-130.9 356.1 -158.6 344.3 -194.5 336.9C-230.4 329.5 -274.5 326.5 -305.9 305.9C-337.4 285.4 -356.1 247.3 -363.7 210C-371.4 172.7 -368 136.1 -377.7 101.2C-387.3 66.3 -410 33.2 -432.7 0L0 0Z" fill="#04314f"></path><path d="M0 288.4C-23 274.1 -45.9 259.7 -66.6 248.6C-87.3 237.4 -105.7 229.5 -129.7 224.6C-153.6 219.6 -183 217.6 -204 204C-224.9 190.3 -237.4 164.9 -242.5 140C-247.6 115.1 -245.4 90.7 -251.8 67.5C-258.2 44.2 -273.3 22.1 -288.4 0L0 0Z" fill="#1f74be"></path><path d="M0 144.2C-11.5 137 -23 129.8 -33.3 124.3C-43.6 118.7 -52.9 114.8 -64.8 112.3C-76.8 109.8 -91.5 108.8 -102 102C-112.5 95.1 -118.7 82.4 -121.2 70C-123.8 57.6 -122.7 45.4 -125.9 33.7C-129.1 22.1 -136.7 11.1 -144.2 0L0 0Z" fill="#3c98fa"></path></g><g transform="translate(0, 600)"><path d="M0 -432.7C38.7 -432.6 77.5 -432.6 112 -417.9C146.5 -403.2 176.8 -373.9 199 -344.7C221.2 -315.5 235.3 -286.4 266.6 -266.6C297.8 -246.7 346.2 -236.2 360.3 -208C374.3 -179.8 354 -134.1 360.3 -96.5C366.6 -58.9 399.6 -29.5 432.7 0L0 0Z" fill="#04314f"></path><path d="M0 -288.4C25.8 -288.4 51.6 -288.4 74.7 -278.6C97.7 -268.8 117.9 -249.3 132.7 -229.8C147.5 -210.3 156.9 -190.9 177.7 -177.7C198.6 -164.5 230.8 -157.4 240.2 -138.7C249.5 -119.9 236 -89.4 240.2 -64.4C244.4 -39.3 266.4 -19.6 288.4 0L0 0Z" fill="#1f74be"></path><path d="M0 -144.2C12.9 -144.2 25.8 -144.2 37.3 -139.3C48.8 -134.4 58.9 -124.6 66.3 -114.9C73.7 -105.2 78.4 -95.5 88.9 -88.9C99.3 -82.2 115.4 -78.7 120.1 -69.3C124.8 -59.9 118 -44.7 120.1 -32.2C122.2 -19.6 133.2 -9.8 144.2 0L0 0Z" fill="#3c98fa"></path></g></svg>